# xmcd CD database file
#
# Track frame offsets:
#	150
#	22645
#	42988
#	61957
#	80838
#	107601
#	127831
#	146770
#	166981
#	185028
#	201330
#	216242
#	232192
#	248461
#	266468
#
# Disc length: 3833 seconds
#
# Revision: 4
# Processed by: cddbd v1.5.1PL0 Copyright (c) Steve Scherf et al.
# Submitted via: CDex 1.51
#
DISCID=d20ef70f
DTITLE=Various Artist - The Mullet Album - 80s Rock Anthems Disc 2
DYEAR=2000
DGENRE=Pop/Rock
TTITLE0=Fall of Rome - James Reyne
TTITLE1=Solid Rock - Goanna
TTITLE2=Dr Heckyll and Mr Jive - Men At Work
TTITLE3=Thorn In My Side - Eurythmics
TTITLE4=All You Zombies - Hooters
TTITLE5=Tucker's Daughter - Ian Moss
TTITLE6=Kyrie - Mr. Mister
TTITLE7=But You Don't Care - Mi Sex
TTITLE8=Alone With You - Sunnyboys
TTITLE9=Centrefold - J. Geils Band
TTITLE10=No Say In It - Machinations
TTITLE11=Love My Way - Psychedlic Furs
TTITLE12=Mama Weer All Crazee Now - Quiet Riot
TTITLE13=The Warrior - Scandel feat. Patti Smyth
TTITLE14=Hit And Run - Jo Jo Zep and The Falcons
EXTD=0\n\n\n YEAR: 2000
EXTT0=
EXTT1=
EXTT2=
EXTT3=
EXTT4=
EXTT5=
EXTT6=
EXTT7=
EXTT8=
EXTT9=
EXTT10=
EXTT11=
EXTT12=
EXTT13=
EXTT14=
PLAYORDER=
